<svg xmlns="http://www.w3.org/2000/svg" width="45" height="45"><path data-name="Path 1" d="M22.5 1.174A21.35 21.35 0 001.174 22.5 21.351 21.351 0 0022.5 43.825a21.351 21.351 0 0021.327-21.327A21.35 21.35 0 0022.5 1.174z" fill="#005f66"/><path data-name="Path 2" d="M22.5 0A22.525 22.525 0 000 22.5 22.525 22.525 0 0022.5 45 22.526 22.526 0 0045 22.5 22.525 22.525 0 0022.5 0zm0 43.367A20.891 20.891 0 011.633 22.499 20.891 20.891 0 0122.5 1.632a20.891 20.891 0 0120.868 20.867A20.892 20.892 0 0122.5 43.367z" fill="#fff"/><g data-name="Group 3"><g data-name="Group 1" fill="#fff"><path data-name="Path 3" d="M13.371 31.535a1 1 0 01.364-.253 1.238 1.238 0 01.489-.092 1.823 1.823 0 01.3.023 1.717 1.717 0 01.234.06 1.134 1.134 0 01.19.085l.171.1a.355.355 0 00.513-.1l.286-.446-.09-.084a2.121 2.121 0 00-.663-.413 2.453 2.453 0 00-.918-.159 2.564 2.564 0 00-.932.162 2.052 2.052 0 00-.717.461 2.057 2.057 0 00-.457.71 2.457 2.457 0 00-.159.894 2.387 2.387 0 00.164.892 2.118 2.118 0 00.459.708 2.111 2.111 0 00.7.463 2.3 2.3 0 00.876.167 4.015 4.015 0 00.486-.028 2.814 2.814 0 00.429-.085 2.255 2.255 0 00.383-.146 2.5 2.5 0 00.344-.208l.06-.045v-1.866h-1.648v.574a.284.284 0 00.088.207.307.307 0 00.216.081h.363v.5a1.714 1.714 0 01-.25.081 1.594 1.594 0 01-.891-.046 1.062 1.062 0 01-.371-.253 1.189 1.189 0 01-.245-.413 1.7 1.7 0 01-.09-.578 1.638 1.638 0 01.085-.542 1.159 1.159 0 01.231-.411z"/><path data-name="Path 4" d="M20.635 32.828a1.45 1.45 0 00.179-.1 1.362 1.362 0 00.317-.3 1.279 1.279 0 00.2-.375 1.375 1.375 0 00.068-.435 1.4 1.4 0 00-.1-.53 1.083 1.083 0 00-.322-.428 1.541 1.541 0 00-.539-.269 2.779 2.779 0 00-.755-.091h-1.389v4.366h1.052v-1.585h.177a.214.214 0 01.1.016.149.149 0 01.051.054l.856 1.305a.5.5 0 00.167.159.479.479 0 00.241.058h.958l-1.175-1.734a1 1 0 00-.086-.111zm-1.292-1.646h.338a.853.853 0 01.531.132.438.438 0 01.15.363.629.629 0 01-.041.232.446.446 0 01-.116.168.593.593 0 01-.21.117 1.028 1.028 0 01-.327.045h-.326z"/><path data-name="Path 5" d="M27.382 30.893a2.072 2.072 0 00-.7-.467 2.5 2.5 0 00-1.8 0 2.063 2.063 0 00-.7.469 2.1 2.1 0 00-.453.71 2.4 2.4 0 00-.159.882 2.4 2.4 0 00.159.884 2.093 2.093 0 00.453.709 2.052 2.052 0 00.7.47 2.379 2.379 0 00.9.167 2.371 2.371 0 00.9-.167 2.067 2.067 0 00.7-.47 2.106 2.106 0 00.451-.709 2.4 2.4 0 00.159-.884 2.4 2.4 0 00-.159-.882 2.116 2.116 0 00-.451-.712zm-.46 1.59a1.784 1.784 0 01-.081.556 1.137 1.137 0 01-.225.4.971.971 0 01-.351.245 1.373 1.373 0 01-.963 0 .99.99 0 01-.355-.245 1.143 1.143 0 01-.227-.4 1.735 1.735 0 01-.082-.555 1.723 1.723 0 01.082-.553 1.156 1.156 0 01.227-.4.966.966 0 01.355-.247 1.271 1.271 0 01.482-.088 1.261 1.261 0 01.481.088.939.939 0 01.351.247 1.135 1.135 0 01.225.4 1.758 1.758 0 01.079.553z"/><path data-name="Path 6" d="M32.84 32.888a1.177 1.177 0 01-.056.377.753.753 0 01-.153.268.689.689 0 01-.241.17.951.951 0 01-.672 0 .659.659 0 01-.239-.17.761.761 0 01-.152-.271 1.177 1.177 0 01-.056-.376v-2.584H30.22v2.586a2.049 2.049 0 00.126.724 1.7 1.7 0 00.368.584 1.685 1.685 0 00.581.381 2.011 2.011 0 00.759.137 2.006 2.006 0 00.758-.137 1.7 1.7 0 00.583-.381 1.684 1.684 0 00.369-.584 2.042 2.042 0 00.126-.724v-2.586h-1.051z"/><path data-name="Path 7" d="M39.463 31.171a1.194 1.194 0 00-.327-.468 1.482 1.482 0 00-.545-.3 2.473 2.473 0 00-.752-.1h-1.473v4.366h1.051v-1.434h.423a2.347 2.347 0 00.739-.106 1.507 1.507 0 00.544-.306 1.267 1.267 0 00.334-.478 1.594 1.594 0 00.11-.6 1.592 1.592 0 00-.104-.574zm-1.624 1.179h-.423v-1.169h.423a1.076 1.076 0 01.319.042.54.54 0 01.2.109.446.446 0 01.115.17.687.687 0 01.041.244.742.742 0 01-.042.26.457.457 0 01-.116.181.52.52 0 01-.2.116 1.01 1.01 0 01-.317.047z"/></g><path data-name="Path 8" d="M39.412 16.09c0-.06.007-.119.007-.178a5.569 5.569 0 00-5.567-5.568 5.54 5.54 0 00-3.674 1.393 5.526 5.526 0 00-3.668-1.393 5.556 5.556 0 00-4.321 2.06 9.549 9.549 0 00-7.087-3.138 9.572 9.572 0 00-9.573 9.573V33.35a1.215 1.215 0 001.215 1.216h1.279a1.216 1.216 0 001.216-1.216v-6.939a9.528 9.528 0 005.862 2.006 9.575 9.575 0 009.311-7.353 9.568 9.568 0 00.258-2.065v-3.083a1.838 1.838 0 011.838-1.839 1.839 1.839 0 011.838 1.839v11.258a1.215 1.215 0 001.215 1.216h1.231a1.216 1.216 0 001.216-1.216V15.912a1.839 1.839 0 011.838-1.839 1.839 1.839 0 011.838 1.839v11.286a1.215 1.215 0 001.216 1.215h1.291a1.216 1.216 0 001.216-1.215V16.09zm-24.311 8.612a5.862 5.862 0 01-5.862-5.863 5.861 5.861 0 015.862-5.862 5.862 5.862 0 015.862 5.862 5.863 5.863 0 01-5.862 5.863z" fill="#fff"/><g data-name="Group 2" fill="#f79400"><path data-name="Path 9" d="M20.088 19.648a8.587 8.587 0 01-1.375 1.165 6.769 6.769 0 00.048-1.838 9.442 9.442 0 001.284-1.138 5 5 0 01.043 1.811z"/><path data-name="Path 10" d="M11.044 21.87a5.006 5.006 0 01-.786-1.566 9.387 9.387 0 001.689.393 6.789 6.789 0 00.934 1.576 8.7 8.7 0 01-1.837-.403z"/><path data-name="Path 11" d="M18.556 15.177a5 5 0 011.276 1.924 8.7 8.7 0 01-1.183 1.15 7.752 7.752 0 00-.077-.333 6.825 6.825 0 00-.876-1.956 7.881 7.881 0 00.86-.785z"/><path data-name="Path 12" d="M17.954 21.275a8.762 8.762 0 01-1.687.691l-.417-1.559a9.327 9.327 0 002.3-1.023 6.137 6.137 0 01-.196 1.891z"/><path data-name="Path 13" d="M13.783 22.322a6.145 6.145 0 01-1.1-1.557 9.3 9.3 0 002.538-.2l.418 1.56a8.645 8.645 0 01-1.856.197z"/><path data-name="Path 14" d="M12.245 19.618a6.194 6.194 0 01-.2-1.968 7.9 7.9 0 002.354-.138l.651 2.432a8.691 8.691 0 01-2.65.159c-.052-.167-.113-.33-.155-.485z"/><path data-name="Path 15" d="M17.176 16.345a6.232 6.232 0 01.773 1.739c.049.188.082.387.115.585a8.648 8.648 0 01-2.383 1.111l-.651-2.43a7.97 7.97 0 002.146-1.005z"/><path data-name="Path 16" d="M14.861 16.723l-.532-1.987a8.629 8.629 0 00.887-.32 6.139 6.139 0 011.581 1.406 7.32 7.32 0 01-1.936.901z"/><path data-name="Path 17" d="M12.795 15.029a7.9 7.9 0 00.908-.139l.533 1.99a7.288 7.288 0 01-2.114.124 6.181 6.181 0 01.673-1.975z"/><path data-name="Path 18" d="M15.808 22.75l.282 1.053-.05.012a6.28 6.28 0 01-1.559-.873 9.23 9.23 0 001.327-.192z"/><path data-name="Path 19" d="M16.763 23.621a.405.405 0 00-.049.017l-.279-1.045a9.617 9.617 0 001.222-.451 6.208 6.208 0 01-.894 1.479z"/><path data-name="Path 20" d="M18.059 14.763a7.268 7.268 0 01-.739.676 6.825 6.825 0 00-1.424-1.351c.1-.054.2-.113.294-.171a5.066 5.066 0 011.869.846z"/><path data-name="Path 21" d="M11.755 15.06c.1 0 .2.008.3.009a6.774 6.774 0 00-.568 1.848 7.674 7.674 0 01-.944-.235 5.088 5.088 0 011.212-1.622z"/><path data-name="Path 22" d="M10.3 17.283a8.325 8.325 0 001.109.276 6.8 6.8 0 00.212 2.222c.018.074.05.151.074.225a8.651 8.651 0 01-1.6-.45 5.025 5.025 0 01.205-2.273z"/><path data-name="Path 23" d="M11.915 22.769a9.263 9.263 0 001.6.193 6.891 6.891 0 001.217.925 5.02 5.02 0 01-2.817-1.118z"/><path data-name="Path 24" d="M17.941 23.027a6.818 6.818 0 00.559-1.317 9.2 9.2 0 001.231-.855 5.077 5.077 0 01-1.79 2.172z"/><path data-name="Path 25" d="M12.706 14.39a5.012 5.012 0 001.152-.167 4.979 4.979 0 001.081-.431 5.008 5.008 0 00-1.152.167 5.008 5.008 0 00-1.081.431z"/></g></g><g fill="#fff"><g data-name="Group 5"><path data-name="Path 26" d="M62.66 15.35h1.71a3 3 0 012.31.69 2.433 2.433 0 01.607 1.655 2.189 2.189 0 01-.7 1.66 3.661 3.661 0 01-2.46.636H62.66zM56.609 32h6.051v-7.795h3.285q3.645 0 5.411-1.765a6.685 6.685 0 001.783-4.942 5.812 5.812 0 00-6.532-6.413h-10z"/><path data-name="Path 27" d="M76.138 11.087h7.945l3.031 12.736 3.034-12.736h7.929v20.915h-4.948V16.075L89.329 32h-4.46l-3.791-15.925V32H76.14z"/><path data-name="Path 28" d="M120.652 24.429v-4.354h9.295v8.924a19.716 19.716 0 01-4.721 2.667 15.392 15.392 0 01-4.871.683 11.309 11.309 0 01-5.666-1.256 8.534 8.534 0 01-3.385-3.782 13.176 13.176 0 01-1.2-5.764 12.655 12.655 0 011.315-5.944 8.738 8.738 0 013.855-3.854 11.686 11.686 0 015.331-1 14.055 14.055 0 014.831.628 6.356 6.356 0 012.665 1.925 9.178 9.178 0 011.581 3.35l-5.821 1.116a3.332 3.332 0 00-1.2-1.821 3.551 3.551 0 00-2.18-.634 3.872 3.872 0 00-3.159 1.486 7.442 7.442 0 00-1.168 4.662q0 3.412 1.181 4.878a4.066 4.066 0 003.32 1.445 5.931 5.931 0 001.925-.314 10.442 10.442 0 002.1-1.069v-1.967z"/><path data-name="Path 29" d="M133.45 11.087h6.01v15.765h9.4v5.149h-15.41z"/><path data-name="Path 30" d="M157.448 17.019a3.618 3.618 0 012.93-1.389 3.69 3.69 0 013.016 1.374 6.726 6.726 0 011.116 4.307c0 2.343-.362 3.962-1.06 4.871a3.991 3.991 0 01-6-.029 10.008 10.008 0 010-9.134zm-5.763 10.641a8.474 8.474 0 003.5 3.573 11.721 11.721 0 005.456 1.116 10.252 10.252 0 005.408-1.3 8.522 8.522 0 003.323-3.65 13.655 13.655 0 001.151-6.008q0-5.033-2.632-7.843t-7.494-2.8a9.643 9.643 0 00-7.4 2.846c-1.772 1.9-2.655 4.543-2.655 7.969a12.426 12.426 0 001.342 6.096z"/><path data-name="Path 31" d="M170.594 11.087h6.294l4.384 15.039 4.312-15.039h6.1L184.471 32h-6.519z"/><path data-name="Path 32" d="M193.614 11.087h16.121v4.482h-10.069v3.341h9.372v4.257h-9.372v4.1h10.37v4.731h-16.422z"/><path data-name="Path 33" d="M212.17 25.098l5.707-.369a5.061 5.061 0 00.754 2.274 3.138 3.138 0 002.665 1.242 2.813 2.813 0 001.989-.648 1.968 1.968 0 00.035-2.966 7.307 7.307 0 00-3.071-1.2 12.69 12.69 0 01-5.638-2.54 5.239 5.239 0 01-1.7-4.027 5.753 5.753 0 013.476-5.3 11.312 11.312 0 014.781-.822 9.145 9.145 0 015.694 1.494 6.531 6.531 0 012.33 4.729l-5.665.356a3.432 3.432 0 00-.956-2.051 2.793 2.793 0 00-1.982-.634 2.292 2.292 0 00-1.577.466 1.548 1.548 0 00-.516 1.167 1.211 1.211 0 00.419.893 4.527 4.527 0 002.01.767 23.835 23.835 0 015.651 1.857 5.927 5.927 0 012.477 2.316 6.126 6.126 0 01.775 3.085 6.982 6.982 0 01-1.026 3.712 6.665 6.665 0 01-2.9 2.581 10.975 10.975 0 01-4.689.866c-3.314 0-5.6-.669-6.889-2.038a8.41 8.41 0 01-2.154-5.21z"/></g><path data-name="Path 34" d="M243.166 10.454a4.584 4.584 0 011.856 1.843 4.936 4.936 0 01.029 4.968 4.632 4.632 0 01-1.857 1.843 4.948 4.948 0 01-4.947 0 4.574 4.574 0 01-1.85-1.843 4.919 4.919 0 01-.656-2.47 5 5 0 01.671-2.5 4.652 4.652 0 011.863-1.843 4.987 4.987 0 014.891 0zm-5.387-.865a5.4 5.4 0 00-2.233 2.2 6.1 6.1 0 00-.809 3 6 6 0 00.8 2.972 5.263 5.263 0 002.218 2.206 5.912 5.912 0 005.945 0 5.429 5.429 0 002.219-2.206 6.047 6.047 0 00-.014-5.973 5.4 5.4 0 00-2.232-2.2 5.941 5.941 0 00-5.891 0zm1.368 8.52V15.34h.6a1.4 1.4 0 01.831.208 5.462 5.462 0 011.116 1.543l.579 1.019h1.246l-.8-1.262a7 7 0 00-.948-1.326 1.656 1.656 0 00-.545-.336 2.054 2.054 0 001.341-.579 1.736 1.736 0 00.514-1.222 1.73 1.73 0 00-1.129-1.563 5.843 5.843 0 00-1.646-.167h-2.221v6.455zm0-5.589h1.2a2.982 2.982 0 011.053.125.817.817 0 01.439.334.714.714 0 01.175.5.872.872 0 01-.327.719 2.195 2.195 0 01-1.257.258h-1.284z"/></g></svg>